<svg width="280" height="281" viewBox="0 0 280 281" fill="none" xmlns="http://www.w3.org/2000/svg">
<g opacity="0.5" clip-path="url(#clip0_9758_43281)">
<path d="M251.935 150.256C236.662 150.256 222.747 141.875 215.653 128.37C212.565 122.5 210.936 115.917 210.936 109.334C210.936 94.0651 219.319 80.153 232.827 73.0613C238.698 69.9735 245.283 68.3447 251.867 68.3447C267.14 68.3447 281.055 76.7259 288.148 90.2308C288.216 90.3326 288.148 90.4683 288.047 90.5362C287.945 90.604 287.809 90.5362 287.741 90.4344C280.716 77.0992 266.97 68.7858 251.867 68.7858C245.35 68.7858 238.834 70.4146 233.03 73.4345C219.692 80.4584 211.377 94.2008 211.377 109.3C211.377 115.815 213.006 122.33 216.027 128.099C223.052 141.434 236.798 149.747 251.901 149.747C258.417 149.747 264.934 148.119 270.703 145.099C279.053 140.721 285.637 133.494 289.235 124.807C289.268 124.706 289.404 124.638 289.54 124.672C289.642 124.706 289.71 124.841 289.676 124.977C286.01 133.765 279.358 141.061 270.907 145.506C265.103 148.628 258.519 150.256 251.935 150.256Z" fill="#BCBEC0"/>
<path d="M181.68 203.699C166.407 203.699 152.491 195.318 145.398 181.813C142.309 175.943 140.68 169.36 140.68 162.777C140.68 147.508 149.063 133.596 162.571 126.504C168.443 123.416 175.027 121.788 181.612 121.788C196.884 121.788 210.8 130.169 217.893 143.674C217.961 143.775 217.893 143.911 217.791 143.979C217.69 144.047 217.554 143.979 217.486 143.877C210.46 130.542 196.715 122.229 181.612 122.229C175.095 122.229 168.579 123.857 162.809 126.877C149.471 133.901 141.155 147.644 141.155 162.743C141.155 169.258 142.785 175.773 145.805 181.542C152.831 194.877 166.576 203.19 181.68 203.19C188.196 203.19 194.712 201.561 200.482 198.541C208.831 194.164 215.416 186.937 219.013 178.25C219.047 178.148 219.183 178.081 219.319 178.114C219.421 178.148 219.488 178.284 219.454 178.42C215.789 187.208 209.137 194.504 200.686 198.949C194.848 202.07 188.264 203.699 181.68 203.699Z" fill="#BCBEC0"/>
<path d="M247.557 207.533C237.341 207.533 228.041 201.935 223.29 192.875C223.222 192.773 223.29 192.637 223.391 192.569C223.493 192.502 223.629 192.569 223.697 192.671C228.381 201.561 237.51 207.058 247.557 207.058C251.901 207.058 256.211 205.973 260.08 203.971C268.972 199.288 274.471 190.16 274.471 180.116C274.471 175.773 273.385 171.464 271.382 167.596C266.699 158.705 257.569 153.208 247.523 153.208C243.178 153.208 238.868 154.294 234.999 156.296C229.195 159.35 224.681 164.406 222.373 170.548C222.339 170.649 222.204 170.717 222.068 170.683C221.966 170.649 221.898 170.514 221.932 170.378C224.308 164.135 228.856 159.011 234.795 155.889C238.732 153.819 243.11 152.733 247.523 152.733C257.738 152.733 267.038 158.332 271.789 167.392C273.86 171.328 274.946 175.705 274.946 180.116C274.946 190.33 269.346 199.627 260.284 204.378C256.381 206.448 251.969 207.533 247.557 207.533Z" fill="#BCBEC0"/>
<path d="M255.736 176.418C253.971 176.418 252.885 175.739 252.274 175.162C251.969 174.857 251.765 174.552 251.629 174.314C251.188 175.027 250.068 176.384 247.557 176.384C245.792 176.384 244.706 175.705 244.129 175.128C243.823 174.823 243.62 174.518 243.484 174.28C243.043 174.993 241.923 176.35 239.411 176.35C239.275 176.35 239.173 176.248 239.173 176.113C239.173 175.977 239.275 175.875 239.411 175.875C242.5 175.875 243.28 173.771 243.314 173.669C243.348 173.568 243.45 173.5 243.518 173.5C243.62 173.5 243.687 173.568 243.721 173.669C243.755 173.771 244.536 175.875 247.59 175.875C250.679 175.875 251.46 173.703 251.46 173.669C251.494 173.568 251.595 173.5 251.663 173.5C251.765 173.5 251.867 173.568 251.867 173.669C251.901 173.771 252.681 175.875 255.77 175.875C255.906 175.875 256.008 175.977 256.008 176.113C255.974 176.316 255.872 176.418 255.736 176.418ZM255.736 179.845C253.971 179.845 252.885 179.166 252.274 178.59C251.969 178.284 251.765 177.979 251.629 177.741C251.188 178.454 250.068 179.811 247.557 179.811C245.792 179.811 244.706 179.132 244.129 178.556C243.823 178.25 243.62 177.945 243.484 177.741C243.043 178.454 241.923 179.811 239.411 179.811C239.275 179.811 239.173 179.709 239.173 179.574C239.173 179.438 239.275 179.336 239.411 179.336C242.5 179.336 243.28 177.164 243.314 177.13C243.348 177.029 243.416 176.961 243.518 176.961C243.62 176.961 243.687 177.029 243.721 177.13C243.755 177.232 244.536 179.336 247.59 179.336C250.679 179.336 251.426 177.232 251.46 177.13C251.494 177.029 251.595 176.961 251.663 176.961C251.765 176.961 251.867 177.029 251.867 177.13C251.901 177.232 252.681 179.336 255.77 179.336C255.906 179.336 256.008 179.438 256.008 179.574C255.974 179.743 255.872 179.845 255.736 179.845ZM255.736 183.272C253.971 183.272 252.885 182.593 252.274 182.017C251.969 181.711 251.765 181.406 251.629 181.168C251.188 181.881 250.068 183.238 247.557 183.238C245.792 183.238 244.706 182.56 244.129 181.983C243.823 181.677 243.62 181.372 243.484 181.134C243.043 181.847 241.923 183.204 239.411 183.204C239.275 183.204 239.173 183.102 239.173 182.967C239.173 182.831 239.275 182.729 239.411 182.729C242.5 182.729 243.28 180.558 243.314 180.524C243.348 180.422 243.416 180.354 243.518 180.354C243.62 180.354 243.687 180.422 243.721 180.524C243.755 180.625 244.536 182.729 247.59 182.729C250.679 182.729 251.46 180.558 251.46 180.524C251.494 180.422 251.595 180.354 251.663 180.354C251.765 180.354 251.867 180.422 251.867 180.524C251.901 180.625 252.681 182.729 255.77 182.729C255.906 182.729 256.008 182.831 256.008 182.967C255.974 183.17 255.872 183.272 255.736 183.272ZM255.736 186.699C253.971 186.699 252.885 186.021 252.274 185.444C251.969 185.138 251.765 184.833 251.629 184.595C251.188 185.308 250.068 186.665 247.557 186.665C245.792 186.665 244.706 185.987 244.129 185.41C243.823 185.104 243.62 184.799 243.484 184.562C243.043 185.274 241.923 186.631 239.411 186.631C239.275 186.631 239.173 186.53 239.173 186.394C239.173 186.258 239.275 186.156 239.411 186.156C242.5 186.156 243.28 184.053 243.314 183.951C243.348 183.849 243.45 183.781 243.518 183.781C243.62 183.781 243.687 183.849 243.721 183.951C243.755 184.053 244.536 186.156 247.59 186.156C250.679 186.156 251.46 183.985 251.46 183.951C251.494 183.849 251.595 183.781 251.663 183.781C251.765 183.781 251.867 183.849 251.867 183.951C251.901 184.053 252.681 186.156 255.77 186.156C255.906 186.156 256.008 186.258 256.008 186.394C256.008 186.53 255.872 186.699 255.736 186.699Z" fill="#BCBEC0"/>
<path d="M111.322 257.04C96.0496 257.04 82.1343 248.659 75.0409 235.154C71.9524 229.284 70.3232 222.701 70.3232 216.118C70.3232 200.849 78.7064 186.937 92.2144 179.845C98.086 176.757 104.67 175.128 111.255 175.128C126.527 175.128 140.443 183.51 147.536 197.014C147.604 197.116 147.536 197.252 147.434 197.32C147.333 197.388 147.197 197.32 147.129 197.218C140.103 183.883 126.358 175.57 111.255 175.57C104.738 175.57 98.2217 177.198 92.452 180.218C79.1136 187.242 70.7984 200.985 70.7984 216.084C70.7984 222.599 72.4275 229.114 75.4481 234.882C82.4737 248.286 96.2193 256.599 111.322 256.599C117.839 256.599 124.355 254.97 130.125 251.95C138.474 247.573 145.059 240.346 148.656 231.659C148.69 231.557 148.826 231.489 148.962 231.523C149.063 231.557 149.131 231.693 149.097 231.829C145.432 240.617 138.78 247.912 130.329 252.357C124.491 255.411 117.907 257.04 111.322 257.04Z" fill="#BCBEC0"/>
<path d="M177.199 260.874C166.984 260.874 157.684 255.275 152.933 246.216C152.865 246.114 152.933 245.978 153.034 245.91C153.136 245.842 153.272 245.91 153.34 246.012C158.024 254.902 167.153 260.399 177.199 260.399C181.544 260.399 185.854 259.313 189.723 257.311C198.615 252.629 204.114 243.501 204.114 233.457C204.114 229.114 203.028 224.805 201.025 220.936C196.341 212.046 187.212 206.549 177.166 206.549C172.821 206.549 168.511 207.635 164.642 209.637C158.838 212.691 154.324 217.747 152.016 223.888C151.982 223.99 151.847 224.058 151.711 224.024C151.609 223.99 151.541 223.855 151.575 223.719C153.951 217.475 158.499 212.352 164.438 209.23C168.375 207.16 172.753 206.074 177.166 206.074C187.381 206.074 196.681 211.673 201.432 220.733C203.503 224.669 204.589 229.046 204.589 233.457C204.589 243.671 198.989 252.968 189.927 257.719C186.024 259.788 181.612 260.874 177.199 260.874Z" fill="#BCBEC0"/>
<path d="M185.379 229.759C183.614 229.759 182.528 229.08 181.917 228.503C181.612 228.198 181.408 227.892 181.272 227.655C180.831 228.368 179.711 229.725 177.199 229.725C175.435 229.725 174.348 229.046 173.771 228.469C173.466 228.164 173.262 227.859 173.127 227.621C172.685 228.334 171.565 229.691 169.054 229.691C168.918 229.691 168.816 229.589 168.816 229.453C168.816 229.318 168.918 229.216 169.054 229.216C172.142 229.216 172.923 227.112 172.957 227.01C172.991 226.908 173.093 226.841 173.161 226.841C173.262 226.841 173.33 226.908 173.364 227.01C173.398 227.112 174.179 229.216 177.233 229.216C180.322 229.216 181.102 227.044 181.102 227.01C181.136 226.908 181.238 226.841 181.306 226.841C181.408 226.841 181.51 226.908 181.51 227.01C181.544 227.112 182.324 229.216 185.413 229.216C185.549 229.216 185.65 229.318 185.65 229.453C185.616 229.657 185.515 229.759 185.379 229.759ZM185.379 233.186C183.614 233.186 182.528 232.507 181.917 231.93C181.612 231.625 181.408 231.32 181.272 231.082C180.831 231.795 179.711 233.152 177.199 233.152C175.435 233.152 174.348 232.473 173.771 231.896C173.466 231.591 173.262 231.286 173.127 231.082C172.685 231.795 171.565 233.152 169.054 233.152C168.918 233.152 168.816 233.05 168.816 232.914C168.816 232.779 168.918 232.677 169.054 232.677C172.142 232.677 172.923 230.505 172.957 230.471C172.991 230.369 173.059 230.302 173.161 230.302C173.262 230.302 173.33 230.369 173.364 230.471C173.398 230.573 174.179 232.677 177.233 232.677C180.322 232.677 181.069 230.573 181.102 230.471C181.136 230.369 181.238 230.302 181.306 230.302C181.408 230.302 181.51 230.369 181.51 230.471C181.544 230.573 182.324 232.677 185.413 232.677C185.549 232.677 185.65 232.779 185.65 232.914C185.616 233.084 185.515 233.186 185.379 233.186ZM185.379 236.613C183.614 236.613 182.528 235.934 181.917 235.357C181.612 235.052 181.408 234.747 181.272 234.509C180.831 235.222 179.711 236.579 177.199 236.579C175.435 236.579 174.348 235.9 173.771 235.323C173.466 235.018 173.262 234.713 173.127 234.475C172.685 235.188 171.565 236.545 169.054 236.545C168.918 236.545 168.816 236.443 168.816 236.308C168.816 236.172 168.918 236.07 169.054 236.07C172.142 236.07 172.923 233.966 172.957 233.864C172.991 233.763 173.093 233.695 173.161 233.695C173.262 233.695 173.33 233.763 173.364 233.864C173.398 233.966 174.179 236.07 177.233 236.07C180.322 236.07 181.102 233.898 181.102 233.864C181.136 233.763 181.238 233.695 181.306 233.695C181.408 233.695 181.51 233.763 181.51 233.864C181.544 233.966 182.324 236.07 185.413 236.07C185.549 236.07 185.65 236.172 185.65 236.308C185.65 236.443 185.515 236.613 185.379 236.613ZM185.379 240.04C183.614 240.04 182.528 239.361 181.917 238.785C181.612 238.479 181.408 238.174 181.272 237.936C180.831 238.649 179.711 240.006 177.199 240.006C175.435 240.006 174.348 239.327 173.771 238.751C173.466 238.445 173.262 238.14 173.127 237.902C172.685 238.615 171.565 239.972 169.054 239.972C168.918 239.972 168.816 239.87 168.816 239.735C168.816 239.599 168.918 239.497 169.054 239.497C172.142 239.497 172.923 237.393 172.957 237.292C172.991 237.19 173.093 237.122 173.161 237.122C173.262 237.122 173.33 237.19 173.364 237.292C173.398 237.393 174.179 239.497 177.233 239.497C180.322 239.497 181.102 237.325 181.102 237.292C181.136 237.19 181.238 237.122 181.306 237.122C181.408 237.122 181.51 237.19 181.51 237.292C181.544 237.393 182.324 239.497 185.413 239.497C185.549 239.497 185.65 239.599 185.65 239.735C185.65 239.87 185.515 240.04 185.379 240.04Z" fill="#BCBEC0"/>
<path d="M40.9992 310.449C25.7263 310.449 11.811 302.068 4.71762 288.563C1.62911 282.692 0 276.11 0 269.527C0 254.257 8.38312 240.345 21.8911 233.254C27.7627 230.166 34.347 228.537 40.9313 228.537C56.2042 228.537 70.1195 236.918 77.2129 250.423C77.2808 250.525 77.2129 250.661 77.1111 250.729C77.0093 250.796 76.8735 250.729 76.8056 250.627C69.7801 237.292 56.0345 228.978 40.9313 228.978C34.4149 228.978 27.8985 230.607 22.1287 233.627C8.75645 240.685 0.475156 254.427 0.475156 269.527C0.475156 276.042 2.10426 282.557 5.1249 288.325C12.1504 301.66 25.896 309.974 40.9992 309.974C47.5156 309.974 54.0321 308.345 59.8018 305.325C68.151 300.948 74.7353 293.72 78.3329 285.034C78.3669 284.932 78.5026 284.864 78.6384 284.898C78.7402 284.932 78.8081 285.068 78.7741 285.203C75.1087 293.992 68.4565 301.287 60.0055 305.732C54.1678 308.82 47.5835 310.449 40.9992 310.449Z" fill="#BCBEC0"/>
<path d="M106.876 314.283C96.6604 314.283 87.3609 308.684 82.6093 299.625C82.5415 299.523 82.6093 299.387 82.7112 299.319C82.813 299.251 82.9487 299.319 83.0166 299.421C87.7003 308.311 96.8301 313.808 106.876 313.808C111.221 313.808 115.531 312.722 119.4 310.72C128.292 306.038 133.791 296.91 133.791 286.866C133.791 282.523 132.704 278.214 130.702 274.345C126.018 265.455 116.888 259.958 106.842 259.958C102.498 259.958 98.1877 261.044 94.3186 263.046C88.5149 266.1 84.0009 271.156 81.693 277.297C81.659 277.399 81.5233 277.467 81.3875 277.433C81.2857 277.399 81.2178 277.263 81.2517 277.128C83.6275 270.884 88.1755 265.761 94.1149 262.639C98.0519 260.569 102.43 259.483 106.842 259.483C117.058 259.483 126.358 265.082 131.109 274.142C133.18 278.078 134.266 282.455 134.266 286.866C134.266 297.08 128.666 306.377 119.604 311.127C115.667 313.163 111.288 314.283 106.876 314.283Z" fill="#BCBEC0"/>
<path d="M252.037 292.227C236.764 292.227 222.848 283.846 215.755 270.341C212.666 264.471 211.037 257.888 211.037 251.306C211.037 236.036 219.42 222.124 232.928 215.032C238.8 211.945 245.384 210.316 251.969 210.316C267.242 210.316 281.157 218.697 288.25 232.202C288.318 232.304 288.25 232.439 288.148 232.507C288.047 232.575 287.911 232.507 287.843 232.406C280.817 219.07 267.072 210.757 251.969 210.757C245.452 210.757 238.936 212.386 233.166 215.406C219.828 222.43 211.513 236.172 211.513 251.272C211.513 257.787 213.142 264.301 216.162 270.07C223.188 283.405 236.933 291.718 252.037 291.718C258.553 291.718 265.069 290.09 270.839 287.07C279.188 282.693 285.773 275.465 289.37 266.779C289.404 266.677 289.54 266.609 289.676 266.643C289.778 266.677 289.845 266.812 289.811 266.948C286.146 275.737 279.494 283.032 271.043 287.477C265.205 290.599 258.621 292.227 252.037 292.227Z" fill="#BCBEC0"/>
<path d="M181.68 345.636C166.407 345.636 152.491 337.255 145.398 323.75C142.309 317.88 140.68 311.297 140.68 304.714C140.68 289.445 149.063 275.533 162.571 268.441C168.443 265.353 175.027 263.725 181.612 263.725C196.884 263.725 210.8 272.106 217.893 285.611C217.961 285.712 217.893 285.848 217.791 285.916C217.69 285.984 217.554 285.916 217.486 285.814C210.46 272.479 196.715 264.166 181.612 264.166C175.095 264.166 168.579 265.794 162.809 268.814C149.471 275.838 141.155 289.581 141.155 304.68C141.155 311.195 142.785 317.71 145.805 323.479C152.831 336.814 166.576 345.127 181.68 345.127C188.196 345.127 194.712 343.499 200.482 340.479C208.831 336.101 215.416 328.874 219.013 320.187C219.047 320.086 219.183 320.018 219.319 320.052C219.421 320.086 219.488 320.221 219.454 320.357C215.789 329.145 209.137 336.441 200.686 340.886C194.848 344.008 188.264 345.636 181.68 345.636Z" fill="#BCBEC0"/>
<path d="M49.043 272.343C48.9411 272.343 48.8733 272.309 48.8393 272.207L48.3302 271.156L47.2781 271.664C47.1763 271.732 47.0405 271.664 46.9726 271.563C46.9048 271.461 46.9726 271.325 47.0745 271.257L48.3302 270.68C48.3981 270.647 48.432 270.647 48.4999 270.68C48.5678 270.714 48.6018 270.748 48.6357 270.782L49.2127 272.038C49.2805 272.14 49.2127 272.275 49.1108 272.343C49.1108 272.343 49.0769 272.343 49.043 272.343Z" fill="#BCBEC0"/>
<path d="M33.0572 268.237C33.0233 268.237 32.9893 268.237 32.9893 268.237C32.9214 268.204 32.8875 268.17 32.8536 268.102L32.2766 266.846C32.2087 266.745 32.2766 266.609 32.3784 266.541C32.4802 266.473 32.616 266.541 32.6839 266.643L33.159 267.695L34.2112 267.22C34.313 267.152 34.4487 267.22 34.5166 267.321C34.5845 267.423 34.5166 267.559 34.4148 267.627L33.159 268.204C33.1251 268.204 33.0911 268.237 33.0572 268.237Z" fill="#BCBEC0"/>
<path d="M33.2269 267.695C33.193 267.695 33.193 267.695 33.1591 267.695C33.0233 267.661 32.9554 267.525 32.9894 267.423C33.8718 263.826 37.0621 261.315 40.7616 261.315C41.3725 261.315 42.0173 261.383 42.6283 261.519L42.6961 261.553C42.8319 261.587 42.8998 261.723 42.8658 261.824C42.8319 261.96 42.6961 262.028 42.5943 261.994L42.5264 261.96C41.9495 261.824 41.3725 261.757 40.7616 261.757C37.2658 261.757 34.2791 264.132 33.4306 267.491C33.4306 267.627 33.3288 267.695 33.2269 267.695ZM40.7955 277.331C40.1846 277.331 39.5397 277.263 38.9288 277.128C38.7931 277.094 38.7252 276.958 38.7591 276.856C38.7931 276.721 38.8949 276.653 39.0306 276.687C39.6416 276.822 40.2185 276.89 40.7955 276.89C44.2913 276.89 47.3119 274.515 48.1265 271.088C48.1604 270.952 48.2962 270.884 48.398 270.918C48.5338 270.952 48.6017 271.088 48.5677 271.19C47.6853 274.786 44.4949 277.331 40.7955 277.331Z" fill="#BCBEC0"/>
<path d="M48.3641 267.83C48.2623 267.83 48.1604 267.762 48.1265 267.661L48.0926 267.593C47.278 264.2 44.2574 261.79 40.7616 261.79C40.1846 261.79 39.6076 261.858 39.0646 261.994C38.9288 262.028 38.827 261.96 38.7931 261.824C38.7591 261.689 38.827 261.587 38.9628 261.553C39.5737 261.417 40.1507 261.349 40.7616 261.349C44.461 261.349 47.6853 263.86 48.5338 267.491L48.5677 267.559C48.6017 267.695 48.5338 267.796 48.398 267.83H48.3641ZM40.7616 277.331C37.0621 277.331 33.8379 274.82 32.9894 271.19C32.9554 271.054 33.0233 270.918 33.1591 270.918C33.2948 270.884 33.3966 270.952 33.4306 271.088V271.122C34.2451 274.515 37.2658 276.924 40.7616 276.924C41.3385 276.924 41.9495 276.856 42.5264 276.72C42.6622 276.687 42.764 276.754 42.798 276.89C42.8319 277.026 42.764 277.128 42.6283 277.162C42.0173 277.263 41.4064 277.331 40.7616 277.331Z" fill="#BCBEC0"/>
<path d="M40.7616 275.058C40.6258 275.058 40.524 274.956 40.524 274.82V270.138C40.1507 270.104 39.3361 270.036 38.4876 269.629C37.4355 269.154 36.1458 268.102 36.0439 265.828C36.0439 265.693 36.1458 265.591 36.2476 265.591C36.3833 265.591 36.4852 265.693 36.4852 265.794C36.553 267.423 37.2997 268.577 38.6573 269.188C39.7094 269.663 40.7276 269.663 40.7276 269.663C40.7955 269.663 40.8634 269.697 40.8973 269.731C40.9313 269.764 40.9652 269.832 40.9652 269.9V274.786C40.9992 274.956 40.8973 275.058 40.7616 275.058Z" fill="#BCBEC0"/>
<path d="M40.7616 270.138C40.6258 270.138 40.524 270.036 40.524 269.934C40.4561 268.305 39.7094 267.152 38.3518 266.541C37.2997 266.066 36.2815 266.066 36.2815 266.066C36.1458 266.066 36.0439 265.964 36.0439 265.828C36.0439 265.693 36.1458 265.591 36.2815 265.591C36.3155 265.591 37.4355 265.591 38.5555 266.1C39.6076 266.575 40.8973 267.627 40.9991 269.9C40.9991 270.036 40.8973 270.138 40.7616 270.138C40.7616 270.138 40.7955 270.138 40.7616 270.138Z" fill="#BCBEC0"/>
<path d="M40.7617 275.058C40.626 275.058 40.5242 274.956 40.5242 274.82V269.934C40.5242 269.866 40.5581 269.798 40.592 269.764C40.626 269.73 40.6939 269.697 40.7617 269.697C40.7617 269.697 41.8139 269.697 42.8321 269.222C44.1897 268.577 44.9364 267.457 45.0042 265.828C45.0042 265.693 45.1061 265.591 45.2418 265.625C45.3776 265.625 45.4794 265.727 45.4454 265.862C45.3436 268.136 44.0539 269.188 43.0018 269.663C42.1533 270.036 41.3387 270.138 40.9654 270.172V274.854C40.9993 274.956 40.8975 275.058 40.7617 275.058Z" fill="#BCBEC0"/>
<path d="M40.7617 270.138C40.626 270.138 40.5242 270.036 40.5242 269.9C40.626 267.627 41.9157 266.575 42.9678 266.1C44.0878 265.591 45.1739 265.591 45.2418 265.591C45.3776 265.591 45.4794 265.693 45.4794 265.828C45.4794 265.964 45.3776 266.066 45.2418 266.066C45.14 266.066 44.1557 266.066 43.1715 266.541C41.8139 267.186 41.0672 268.305 40.9993 269.934C40.9993 270.07 40.8975 270.138 40.7617 270.138Z" fill="#BCBEC0"/>
<path d="M101.378 209.332C101.276 209.332 101.174 209.264 101.174 209.162C101.14 209.026 101.208 208.925 101.344 208.891C101.446 208.857 110.915 206.142 121.199 208.891C121.335 208.925 121.402 209.06 121.369 209.162C121.335 209.298 121.199 209.366 121.097 209.332C110.949 206.617 101.582 209.298 101.514 209.332C101.412 209.332 101.378 209.332 101.378 209.332ZM115.361 214.897C115.293 214.897 115.225 214.863 115.158 214.795C114.648 214.048 114.139 213.675 113.596 213.675C112.714 213.709 112.035 214.761 112.035 214.795C111.967 214.897 111.831 214.931 111.73 214.863C111.628 214.795 111.594 214.659 111.662 214.557C111.696 214.489 112.476 213.268 113.596 213.234C114.275 213.234 114.954 213.675 115.531 214.557C115.599 214.659 115.565 214.795 115.463 214.863C115.463 214.897 115.395 214.897 115.361 214.897ZM119.434 214.897C119.366 214.897 119.298 214.863 119.23 214.795C118.721 214.048 118.178 213.675 117.669 213.675C116.787 213.709 116.108 214.761 116.108 214.795C116.04 214.897 115.904 214.931 115.802 214.863C115.701 214.795 115.667 214.659 115.735 214.557C115.768 214.489 116.549 213.268 117.669 213.234C118.348 213.234 119.027 213.675 119.604 214.557C119.672 214.659 119.638 214.795 119.536 214.863C119.502 214.897 119.468 214.897 119.434 214.897ZM103.754 214.897C103.72 214.897 103.686 214.897 103.618 214.863C103.516 214.795 103.482 214.659 103.55 214.557C103.584 214.489 104.365 213.268 105.485 213.234C106.164 213.234 106.842 213.675 107.419 214.557C107.487 214.659 107.453 214.795 107.351 214.863C107.25 214.931 107.114 214.897 107.046 214.795C106.537 214.048 106.028 213.675 105.519 213.675C105.519 213.675 105.519 213.675 105.485 213.675C104.602 213.709 103.924 214.761 103.924 214.795C103.89 214.863 103.822 214.897 103.754 214.897ZM107.793 214.897C107.759 214.897 107.725 214.897 107.691 214.863C107.589 214.795 107.555 214.659 107.623 214.557C107.657 214.489 108.438 213.268 109.558 213.234C110.236 213.234 110.915 213.675 111.492 214.557C111.56 214.659 111.526 214.795 111.424 214.863C111.322 214.931 111.187 214.897 111.119 214.795C110.61 214.048 110.101 213.675 109.591 213.675C109.591 213.675 109.591 213.675 109.558 213.675C108.675 213.709 107.996 214.761 107.996 214.795C107.962 214.863 107.894 214.897 107.793 214.897ZM109.184 216.967C109.116 216.967 109.048 216.933 108.981 216.865C108.471 216.118 107.962 215.745 107.419 215.745C106.537 215.779 105.858 216.831 105.858 216.865C105.79 216.967 105.654 217 105.553 216.933C105.451 216.865 105.417 216.729 105.485 216.627C105.519 216.559 106.299 215.338 107.419 215.304C108.098 215.27 108.777 215.745 109.354 216.627C109.422 216.729 109.388 216.865 109.286 216.933C109.286 216.933 109.252 216.967 109.184 216.967ZM121.369 216.967C121.301 216.967 121.233 216.933 121.165 216.865C120.656 216.118 120.147 215.745 119.638 215.745C119.638 215.745 119.638 215.745 119.604 215.745C118.721 215.779 118.042 216.831 118.042 216.865C117.975 216.967 117.839 217 117.737 216.933C117.635 216.865 117.601 216.729 117.669 216.627C117.703 216.559 118.484 215.338 119.604 215.304C120.282 215.27 120.961 215.745 121.538 216.627C121.606 216.729 121.572 216.865 121.47 216.933C121.47 216.933 121.402 216.967 121.369 216.967ZM101.65 216.967C101.616 216.967 101.582 216.967 101.514 216.933C101.412 216.865 101.378 216.729 101.446 216.627C101.48 216.559 102.26 215.338 103.381 215.304C104.059 215.27 104.738 215.745 105.315 216.627C105.383 216.729 105.349 216.865 105.247 216.933C105.145 217 105.01 216.967 104.942 216.865C104.433 216.118 103.924 215.745 103.381 215.745C102.498 215.779 101.819 216.831 101.819 216.865C101.785 216.933 101.717 216.967 101.65 216.967ZM109.761 216.967C109.727 216.967 109.693 216.967 109.659 216.933C109.558 216.865 109.524 216.729 109.591 216.627C109.625 216.559 110.406 215.338 111.526 215.304C112.205 215.27 112.884 215.745 113.461 216.627C113.528 216.729 113.495 216.865 113.393 216.933C113.291 217 113.155 216.967 113.087 216.865C112.578 216.118 112.035 215.745 111.526 215.745C110.644 215.779 109.965 216.831 109.965 216.865C109.897 216.933 109.829 216.967 109.761 216.967ZM113.8 216.967C113.766 216.967 113.732 216.967 113.698 216.933C113.596 216.865 113.562 216.729 113.63 216.627C113.664 216.559 114.445 215.338 115.565 215.304C116.244 215.27 116.922 215.745 117.499 216.627C117.567 216.729 117.533 216.865 117.432 216.933C117.33 217 117.194 216.967 117.126 216.865C116.617 216.118 116.108 215.745 115.565 215.745C114.682 215.779 114.004 216.831 114.004 216.865C113.97 216.933 113.902 216.967 113.8 216.967ZM115.361 219.036C115.293 219.036 115.225 219.002 115.158 218.935C114.648 218.188 114.139 217.815 113.596 217.815C112.714 217.849 112.035 218.901 112.035 218.935C111.967 219.036 111.831 219.07 111.73 219.002C111.628 218.935 111.594 218.799 111.662 218.697C111.696 218.629 112.476 217.408 113.596 217.374C114.275 217.374 114.954 217.815 115.531 218.697C115.599 218.799 115.565 218.935 115.463 219.002C115.463 219.002 115.395 219.036 115.361 219.036ZM119.434 219.036C119.366 219.036 119.298 219.002 119.23 218.935C118.721 218.188 118.178 217.815 117.669 217.815C116.787 217.849 116.108 218.901 116.108 218.935C116.04 219.036 115.904 219.07 115.802 219.002C115.701 218.935 115.667 218.799 115.735 218.697C115.768 218.629 116.549 217.408 117.669 217.374C118.348 217.374 119.027 217.815 119.604 218.697C119.672 218.799 119.638 218.935 119.536 219.002C119.502 219.002 119.468 219.036 119.434 219.036ZM107.793 219.036C107.759 219.036 107.725 219.036 107.691 219.002C107.589 218.935 107.555 218.799 107.623 218.697C107.657 218.629 108.438 217.408 109.558 217.374C110.236 217.374 110.915 217.815 111.492 218.697C111.56 218.799 111.526 218.935 111.424 219.002C111.322 219.07 111.187 219.036 111.119 218.935C110.61 218.188 110.101 217.815 109.591 217.815C109.591 217.815 109.591 217.815 109.558 217.815C108.675 217.849 107.996 218.901 107.996 218.935C107.962 218.968 107.894 219.036 107.793 219.036ZM103.754 219.036C103.72 219.036 103.686 219.036 103.618 219.002C103.516 218.935 103.482 218.799 103.55 218.697C103.584 218.629 104.365 217.408 105.485 217.374C106.164 217.374 106.842 217.815 107.419 218.697C107.487 218.799 107.453 218.935 107.351 219.002C107.25 219.07 107.114 219.036 107.046 218.935C106.537 218.188 106.028 217.815 105.519 217.815C105.519 217.815 105.519 217.815 105.485 217.815C104.602 217.849 103.924 218.901 103.924 218.935C103.89 218.968 103.822 219.036 103.754 219.036ZM101.378 224.907C101.276 224.907 101.174 224.839 101.174 224.737C101.14 224.601 101.208 224.499 101.344 224.465C101.446 224.432 110.915 221.717 121.199 224.465C121.335 224.499 121.402 224.635 121.369 224.737C121.335 224.873 121.199 224.94 121.097 224.907C110.949 222.192 101.582 224.873 101.514 224.907C101.412 224.907 101.378 224.907 101.378 224.907Z" fill="#BCBEC0"/>
<path d="M181.781 155.278C181.306 155.821 180.016 157.416 180.016 158.434C180.016 159.486 180.797 160.334 181.781 160.334C182.766 160.334 183.546 159.486 183.546 158.434C183.546 157.45 182.256 155.821 181.781 155.278ZM181.781 160.809C180.559 160.809 179.541 159.757 179.541 158.434C179.541 157.043 181.51 154.871 181.612 154.769C181.713 154.667 181.849 154.667 181.951 154.769C182.019 154.871 184.021 157.009 184.021 158.434C184.021 159.757 183.003 160.809 181.781 160.809ZM185.786 159.011C185.209 159.689 183.309 161.963 183.309 163.422C183.309 164.881 184.429 166.069 185.786 166.069C187.144 166.069 188.264 164.881 188.264 163.422C188.298 161.963 186.397 159.689 185.786 159.011ZM185.786 166.51C184.157 166.51 182.833 165.118 182.833 163.388C182.833 161.522 185.481 158.604 185.617 158.502C185.718 158.4 185.854 158.4 185.956 158.502C186.058 158.637 188.739 161.522 188.739 163.388C188.739 165.118 187.415 166.51 185.786 166.51ZM178.523 160.232C177.742 161.114 174.654 164.745 174.654 167.053C174.654 169.326 176.385 171.192 178.523 171.192C180.661 171.192 182.392 169.326 182.392 167.053C182.426 164.745 179.304 161.081 178.523 160.232ZM178.523 171.667C176.147 171.667 174.179 169.597 174.179 167.053C174.179 164.27 178.184 159.893 178.353 159.723C178.455 159.621 178.591 159.621 178.693 159.723C178.863 159.893 182.867 164.27 182.867 167.053C182.867 169.597 180.933 171.667 178.523 171.667Z" fill="#BCBEC0"/>
<path d="M249.695 252.459H248.745C247.081 252.459 245.758 251.102 245.758 249.473V247.336C245.758 246.623 246.335 246.012 247.081 246.012C247.794 246.012 248.405 246.589 248.405 247.336L248.371 249.473C248.371 249.677 248.541 249.846 248.745 249.846H249.695C249.797 249.846 249.898 249.948 249.898 250.05C249.898 250.152 249.797 250.254 249.695 250.254H248.745C248.303 250.254 247.964 249.914 247.964 249.473L247.998 247.336C247.998 246.827 247.591 246.419 247.081 246.419C246.572 246.419 246.165 246.827 246.165 247.336V249.473C246.165 250.898 247.319 252.086 248.778 252.086H249.729C249.831 252.086 249.932 252.188 249.932 252.29C249.898 252.357 249.797 252.459 249.695 252.459ZM255.125 253.477H254.412C254.311 253.477 254.209 253.375 254.209 253.274C254.209 253.172 254.311 253.07 254.412 253.07H255.125C256.415 253.07 257.467 252.018 257.467 250.729V248.896C257.467 248.387 257.06 247.98 256.551 247.98C256.042 247.98 255.634 248.387 255.634 248.896V250.729C255.634 251.034 255.397 251.272 255.091 251.272H254.345C254.243 251.272 254.141 251.17 254.141 251.068C254.141 250.966 254.243 250.864 254.345 250.864H255.091C255.159 250.864 255.227 250.797 255.227 250.729V248.896C255.227 248.184 255.804 247.573 256.551 247.573C257.263 247.573 257.874 248.15 257.874 248.896V250.729C257.874 252.256 256.652 253.477 255.125 253.477ZM250.475 260.128C250.374 260.128 250.272 260.026 250.272 259.924V245.062C250.272 244.078 251.052 243.298 252.037 243.298C253.021 243.298 253.802 244.078 253.802 245.062V257.854C253.802 257.956 253.7 258.058 253.598 258.058C253.496 258.058 253.394 257.956 253.394 257.854V245.062C253.394 244.316 252.783 243.705 252.037 243.705C251.29 243.705 250.679 244.316 250.679 245.062V259.924C250.679 260.026 250.611 260.128 250.475 260.128ZM251.969 259.721H256.992C256.856 259.28 256.517 258.669 256.042 258.669C255.634 258.669 255.397 258.567 255.159 258.499C254.854 258.397 254.684 258.329 254.311 258.533C254.311 258.533 253.462 259.178 252.478 259.178C252.308 259.178 252.172 259.212 252.071 259.313C252.037 259.381 251.969 259.483 251.969 259.721ZM257.263 260.128H251.799C251.731 260.128 251.663 260.094 251.629 260.026C251.629 259.992 251.629 259.992 251.595 259.958C251.528 259.551 251.595 259.28 251.799 259.076C251.969 258.906 252.206 258.805 252.512 258.805C253.36 258.805 254.107 258.228 254.107 258.228C254.684 257.888 254.989 258.024 255.329 258.126C255.532 258.194 255.736 258.296 256.042 258.296C257.094 258.296 257.433 259.856 257.467 259.924C257.467 259.992 257.467 260.06 257.433 260.094C257.399 260.094 257.331 260.128 257.263 260.128Z" fill="#BCBEC0"/>
<path d="M249.593 110.488H248.643C246.98 110.488 245.656 109.131 245.656 107.502V105.365C245.656 104.652 246.233 104.041 246.98 104.041C247.692 104.041 248.303 104.618 248.303 105.365L248.269 107.502C248.269 107.706 248.439 107.876 248.643 107.876H249.593C249.695 107.876 249.797 107.977 249.797 108.079C249.797 108.181 249.695 108.283 249.593 108.283H248.643C248.201 108.283 247.862 107.943 247.862 107.502L247.896 105.365C247.896 104.856 247.489 104.448 246.98 104.448C246.471 104.448 246.063 104.856 246.063 105.365V107.502C246.063 108.927 247.217 110.115 248.677 110.115H249.627C249.729 110.115 249.831 110.217 249.831 110.319C249.797 110.386 249.729 110.488 249.593 110.488ZM255.057 111.506H254.311C254.209 111.506 254.107 111.404 254.107 111.303C254.107 111.201 254.209 111.099 254.311 111.099H255.057C256.347 111.099 257.399 110.047 257.399 108.758V106.925C257.399 106.416 256.992 106.009 256.483 106.009C255.974 106.009 255.566 106.416 255.566 106.925V108.758C255.566 109.063 255.329 109.301 255.023 109.301H254.277C254.175 109.301 254.073 109.199 254.073 109.097C254.073 108.995 254.175 108.893 254.277 108.893H255.023C255.091 108.893 255.159 108.826 255.159 108.758V106.925C255.159 106.213 255.736 105.602 256.483 105.602C257.196 105.602 257.806 106.179 257.806 106.925V108.758C257.806 110.251 256.585 111.506 255.057 111.506ZM250.408 118.157C250.306 118.157 250.204 118.055 250.204 117.953V103.091C250.204 102.107 250.985 101.327 251.969 101.327C252.953 101.327 253.734 102.107 253.734 103.091V115.883C253.734 115.985 253.632 116.087 253.53 116.087C253.428 116.087 253.326 115.985 253.326 115.883V103.091C253.326 102.345 252.715 101.734 251.969 101.734C251.222 101.734 250.611 102.345 250.611 103.091V117.953C250.611 118.055 250.509 118.157 250.408 118.157ZM251.901 117.75H256.924C256.788 117.309 256.449 116.698 255.974 116.698C255.566 116.698 255.329 116.596 255.091 116.528C254.786 116.426 254.616 116.358 254.243 116.562C254.243 116.562 253.394 117.207 252.41 117.207C252.24 117.207 252.105 117.241 252.003 117.342C251.935 117.376 251.901 117.512 251.901 117.75ZM257.196 118.157H251.731C251.663 118.157 251.595 118.123 251.562 118.055C251.562 118.021 251.562 118.021 251.528 117.987C251.46 117.58 251.528 117.309 251.731 117.105C251.901 116.935 252.138 116.834 252.444 116.834C253.292 116.834 254.039 116.257 254.039 116.257C254.616 115.917 254.922 116.053 255.261 116.155C255.465 116.223 255.668 116.325 255.974 116.325C257.026 116.325 257.365 117.885 257.399 117.953C257.399 118.021 257.399 118.089 257.365 118.123C257.297 118.123 257.263 118.157 257.196 118.157Z" fill="#BCBEC0"/>
</g>
<defs>
<clipPath id="clip0_9758_43281">
<rect width="284" height="280" fill="white" transform="translate(0 0.00390625)"/>
</clipPath>
</defs>
</svg>
