<svg width="33" height="33" viewBox="0 0 33 33" fill="none" xmlns="http://www.w3.org/2000/svg">
<path d="M19.873 25.4866C19.8379 25.4866 19.8028 25.4866 19.7677 25.4515C19.6273 25.3813 19.5921 25.2408 19.6624 25.1004L20.6455 23.134L18.0472 21.3082L14.255 21.4837L12.4993 24.995C12.4291 25.1355 12.2887 25.1706 12.1482 25.1004C12.0078 25.0301 11.9726 24.8897 12.0429 24.7492L13.7985 21.2731L11.9024 18.7449L7.86444 21.554C7.7591 21.6242 7.58353 21.5891 7.51331 21.4837C7.44308 21.3784 7.44308 21.2028 7.58353 21.1326L11.6215 18.3587L9.26895 15.2688L5.26608 16.603C5.12563 16.6382 4.98518 16.5679 4.91495 16.4275C4.87984 16.287 4.95007 16.1466 5.09052 16.0764L8.70715 14.8474L5.47676 12.3193C5.37142 12.2139 5.33631 12.0735 5.44165 11.933C5.54699 11.8277 5.68744 11.7926 5.82789 11.8979L9.26895 14.6016L12.3589 12.249L11.2002 8.70265C11.165 8.5622 11.2353 8.42174 11.3757 8.38663C11.5162 8.35152 11.6566 8.42174 11.6917 8.5622L12.8856 12.1788L15.7297 13.2322L15.9053 9.26445L15.0977 7.29813C15.0275 7.15768 15.0977 7.01723 15.2381 6.947C15.3786 6.87678 15.519 6.947 15.5893 7.08745L16.3618 8.87821L18.3632 8.24618L19.1357 6.70121C19.2059 6.56076 19.3464 6.52565 19.4868 6.59587C19.6273 6.6661 19.6624 6.80655 19.5921 6.947L18.8197 8.45686L20.3295 11.3361L23.2439 10.0369C23.3843 9.96671 23.5248 10.0369 23.595 10.1774C23.6652 10.3178 23.595 10.4583 23.4546 10.5285L20.8562 11.6872L23.6652 13.0215L26.7903 11.4063C26.9307 11.3361 27.0712 11.4063 27.1414 11.5117C27.2116 11.6521 27.1414 11.7926 27.0361 11.8628L23.8759 13.5131L23.2088 16.2168L25.3507 18.0427L28.581 16.9893C28.7215 16.9542 28.8619 17.0244 28.8971 17.1649C28.9322 17.3053 28.8619 17.4458 28.7215 17.4809L25.5262 18.5343L25.3858 20.9219L27.4574 22.0104C27.5979 22.0807 27.633 22.2211 27.5628 22.3616C27.4925 22.502 27.3521 22.5371 27.2116 22.4669L25.1049 21.3784L21.1371 23.3096L20.0837 25.4164C20.0486 25.4515 19.9433 25.4866 19.873 25.4866ZM18.4334 20.9922L20.9967 22.7829L24.8942 20.8868L25.0346 18.464L22.8928 16.6382L19.6975 18.3587L18.4334 20.9922ZM12.3238 18.4991L14.1848 20.9922L17.9067 20.8166L19.1357 18.2885L16.3266 16.8137L12.3238 18.4991ZM9.62008 15.023L11.9726 18.0778L16.0457 16.3573L15.7297 13.794L12.71 12.6704L9.62008 15.023ZM16.5724 16.3573L19.4868 17.8671L22.6821 16.1466L23.3141 13.478L20.1891 12.0033L16.2564 13.7589L16.5724 16.3573ZM16.432 9.4049L16.2564 13.162L19.8379 11.5468L18.3632 8.77287L16.432 9.4049Z" fill="white"/>
</svg>
