<svg width="32" height="33" viewBox="0 0 32 33" fill="none" xmlns="http://www.w3.org/2000/svg">
<path d="M15.9778 28.0237C15.8892 28.0237 15.8007 27.9794 15.7564 27.9351L13.8523 25.9868C13.7195 25.8539 13.7195 25.6325 13.8523 25.4997C13.9852 25.3669 14.2066 25.3669 14.3394 25.4997L16.0221 27.1824L17.7047 25.4554C17.8376 25.3226 18.059 25.3226 18.1918 25.4554C18.3247 25.5883 18.3247 25.8097 18.1918 25.9425L16.2435 27.9351C16.1549 27.9794 16.0664 28.0237 15.9778 28.0237ZM24.214 24.6141H21.5129C21.3357 24.6141 21.1586 24.4812 21.1586 24.2598C21.1586 24.0384 21.2915 23.9056 21.5129 23.9056H23.904V21.4702C23.904 21.2931 24.0368 21.1159 24.2582 21.1159C24.4797 21.1159 24.6125 21.2488 24.6125 21.4702V24.2156C24.5239 24.437 24.3911 24.6141 24.214 24.6141ZM10.5313 24.6141H7.78592C7.6088 24.6141 7.43168 24.4812 7.43168 24.2598V21.5145C7.43168 21.3373 7.56452 21.1602 7.78592 21.1602C8.00733 21.1602 8.14017 21.2931 8.14017 21.5145V23.9499H10.5313C10.7084 23.9499 10.8856 24.0827 10.8856 24.3041C10.8856 24.5255 10.7084 24.6141 10.5313 24.6141ZM15.9778 23.9942C11.6383 23.9942 8.09589 20.4517 8.09589 16.068C8.09589 11.6842 11.6383 8.14176 15.9778 8.14176C20.3173 8.14176 23.8597 11.6842 23.8597 16.068C23.8597 20.4517 20.3173 23.9942 15.9778 23.9942ZM15.9778 8.85025C11.9926 8.85025 8.76009 12.0827 8.76009 16.1122C8.76009 20.1418 12.0368 23.33 15.9778 23.33C19.963 23.33 23.1955 20.0975 23.1955 16.068C23.1955 12.0384 19.963 8.85025 15.9778 8.85025ZM25.6752 18.282C25.5867 18.282 25.4981 18.2377 25.4538 18.1934C25.321 18.0606 25.321 17.8392 25.4538 17.7063L27.1365 15.9794L25.4538 14.2967C25.321 14.1639 25.321 13.9425 25.4538 13.8097C25.5867 13.6768 25.8081 13.6768 25.9409 13.8097L27.845 15.758C27.9778 15.8908 27.9778 16.1122 27.845 16.2451L25.8966 18.1934C25.8081 18.282 25.7638 18.282 25.6752 18.282ZM6.32467 18.282C6.23611 18.282 6.14755 18.2377 6.10327 18.1934L4.15493 16.2451C4.02209 16.1122 4.02209 15.8908 4.15493 15.758L6.05899 13.8097C6.19183 13.6768 6.41323 13.6768 6.54607 13.8097C6.67891 13.9425 6.67891 14.1639 6.54607 14.2967L4.86342 15.9794L6.54607 17.7506C6.67891 17.8835 6.67891 18.1049 6.54607 18.2377C6.50179 18.282 6.41323 18.282 6.32467 18.282ZM24.214 10.8429C24.0368 10.8429 23.8597 10.71 23.8597 10.4886V8.09748H21.4686C21.2915 8.09748 21.1143 7.96464 21.1143 7.74324C21.1143 7.52184 21.2472 7.389 21.4686 7.389H24.1697C24.3468 7.389 24.5239 7.52184 24.5239 7.74324V10.4886C24.5239 10.71 24.3911 10.8429 24.214 10.8429ZM7.78592 10.8429C7.6088 10.8429 7.43168 10.71 7.43168 10.4886V7.78752C7.43168 7.6104 7.56452 7.43328 7.78592 7.43328H10.5313C10.7084 7.43328 10.8856 7.56612 10.8856 7.78752C10.8856 8.00892 10.7084 8.09748 10.5313 8.09748H8.14017V10.4886C8.14017 10.71 7.96305 10.8429 7.78592 10.8429ZM17.9261 6.63623C17.8376 6.63623 17.749 6.59195 17.7047 6.54767L16.0221 4.82073L14.3394 6.50339C14.2066 6.63623 13.9852 6.63623 13.8523 6.50339C13.7195 6.37055 13.7195 6.14914 13.8523 6.0163L15.7564 4.06796C15.8007 4.06796 15.8892 4.02368 15.9778 4.02368C16.0664 4.02368 16.1549 4.06796 16.1992 4.11224L18.1475 6.06058C18.2804 6.19342 18.2804 6.41483 18.1475 6.54767C18.1033 6.59195 18.0147 6.63623 17.9261 6.63623Z" fill="white"/>
</svg>
