<svg width="1056" height="432" viewBox="0 0 1056 432" fill="none" xmlns="http://www.w3.org/2000/svg">
<g opacity="0.8" clip-path="url(#clip0_290_47151)">
<path d="M60.7567 0.208435L21.28 -38.6907L195.816 -210.673L235.293 -171.774L60.7567 0.208435ZM291.399 -211.599C275.927 -196.353 253.224 -195.427 237.101 -211.314C221.05 -227.13 222.206 -249.216 237.679 -264.462C253.151 -279.708 276.288 -280.349 291.761 -265.175C307.305 -249.928 306.944 -226.917 291.399 -211.599Z" fill="white"/>
<path d="M60.7567 228.803L21.28 188.782L195.816 11.8387L235.293 51.8598L60.7567 228.803ZM291.399 10.8858C275.927 26.5718 253.224 27.5246 237.101 11.179C221.05 -5.09336 222.206 -27.816 237.679 -43.502C253.151 -59.1879 276.288 -59.8476 291.761 -44.2349C307.305 -28.549 306.944 -4.87344 291.399 10.8858Z" fill="white"/>
<path d="M289.152 228.803L250.04 189.166L422.963 13.9217L462.075 53.5587L289.152 228.803ZM517.662 12.9054C502.333 28.4408 479.84 29.3845 463.866 13.1958C447.963 -2.92032 449.109 -25.4248 464.439 -40.9601C479.768 -56.4955 502.691 -57.1488 518.02 -41.6861C533.35 -26.1507 532.992 -2.62991 517.662 12.9054Z" fill="white"/>
<path d="M289.152 452.082L250.04 412.819L422.963 239.228L462.075 278.491L289.152 452.082ZM517.662 238.221C502.333 253.61 479.84 254.544 463.866 238.508C447.963 222.544 449.109 200.252 464.439 184.863C479.768 169.475 502.691 168.827 518.02 184.144C533.35 199.533 532.992 222.832 517.662 238.221Z" fill="white"/>
<path d="M584.777 157.035L545.3 117.024L719.836 -59.8736L759.313 -19.8627L584.777 157.035ZM815.419 -60.8995C799.946 -45.2176 777.244 -44.2649 761.121 -60.6063C745.07 -76.8745 746.226 -99.5913 761.699 -115.273C777.172 -130.955 800.308 -131.615 815.781 -116.006C831.325 -100.324 830.964 -76.5814 815.419 -60.8995Z" fill="white"/>
<path d="M510.304 449.424L470.82 410.525L645.39 238.542L684.874 277.441L510.304 449.424ZM740.991 237.616C725.515 252.862 702.808 253.789 686.682 237.901C670.628 222.085 671.785 200 687.261 184.753C702.736 169.507 725.877 168.866 741.353 184.041C756.828 199.216 756.467 222.299 740.991 237.616Z" fill="white"/>
<path d="M810.142 154.377L771.4 114.74L942.687 -60.5045L981.429 -20.8676L810.142 154.377ZM1036.42 -61.5208C1021.23 -45.9855 998.955 -45.0417 983.132 -61.2304C967.38 -77.3465 968.515 -99.851 983.699 -115.386C998.884 -130.922 1021.59 -131.575 1036.77 -116.112C1052.03 -100.577 1051.67 -77.0562 1036.42 -61.5208Z" fill="white"/>
<path d="M510.304 678.019L470.82 638.372L645.39 463.082L684.874 502.729L510.304 678.019ZM740.991 462.138C725.515 477.677 702.808 478.621 686.682 462.428C670.628 446.308 671.785 423.798 687.261 408.258C702.736 392.719 725.877 392.065 741.353 407.532C756.828 423.072 756.467 446.526 740.991 462.138Z" fill="white"/>
<path d="M810.142 377.656L771.4 338.767L942.687 166.829L981.429 205.718L810.142 377.656ZM1036.42 165.832C1021.23 181.074 998.955 182 983.132 166.116C967.38 150.304 968.515 128.224 983.699 112.982C998.884 97.74 1021.59 97.099 1036.77 112.27C1052.03 127.512 1051.67 150.589 1036.42 165.832Z" fill="white"/>
<path d="M738.692 680.677L699.58 640.666L872.503 463.768L911.615 503.779L738.692 680.677ZM967.202 462.742C951.873 478.424 929.38 479.377 913.406 463.035C897.503 446.767 898.649 424.05 913.979 408.368C929.308 392.687 952.231 392.027 967.56 407.636C982.89 423.318 982.532 447.06 967.202 462.742Z" fill="white"/>
<path d="M1034.32 377.656L994.84 338.757L1169.41 166.774L1208.89 205.673L1034.32 377.656ZM1265.01 165.848C1249.54 181.094 1226.83 182.02 1210.7 166.133C1194.65 150.317 1195.8 128.231 1211.28 112.985C1226.76 97.7391 1249.9 97.0979 1265.37 112.273C1280.85 127.519 1280.49 150.531 1265.01 165.848Z" fill="white"/>
<path d="M1034.32 606.251L994.84 566.978L1169.41 393.341L1208.89 432.614L1034.32 606.251ZM1265.01 392.406C1249.54 407.799 1226.83 408.734 1210.7 392.694C1194.65 376.726 1195.8 354.428 1211.28 339.035C1226.76 323.642 1249.9 322.995 1265.37 338.316C1280.85 353.709 1280.49 376.942 1265.01 392.406Z" fill="white"/>
</g>
<defs>
<clipPath id="clip0_290_47151">
<rect width="1056" height="432" fill="white"/>
</clipPath>
</defs>
</svg>
