<svg width="1069" height="175" viewBox="0 0 1069 175" fill="none" xmlns="http://www.w3.org/2000/svg">
<g clip-path="url(#clip0_9785_53908)">
<path d="M304.841 11.002L290 -3.63233L355.615 -68.3341L370.456 -53.6998L304.841 11.002ZM391.549 -68.6825C385.732 -62.9467 377.197 -62.5983 371.136 -68.5753C365.101 -74.5255 365.536 -82.8343 371.353 -88.5701C377.17 -94.3059 385.868 -94.5471 391.684 -88.8382C397.528 -83.1024 397.392 -74.4451 391.549 -68.6825Z" fill="#4C2F92"/>
<path d="M304.841 97.002L290 81.9455L355.615 15.3774L370.456 30.4338L304.841 97.002ZM391.549 15.0189C385.732 20.9201 377.197 21.2786 371.136 15.1292C365.101 9.00735 365.536 0.458841 371.353 -5.4424C377.17 -11.3436 385.868 -11.5918 391.684 -5.71815C397.528 0.183083 397.392 9.09009 391.549 15.0189Z" fill="#4C2F92"/>
<path d="M390.704 97.002L376 82.0901L441.009 16.1611L455.712 31.0729L390.704 97.002ZM476.61 15.7787C470.847 21.6233 462.391 21.9783 456.386 15.8879C450.407 9.82488 450.838 1.35844 456.601 -4.48614C462.364 -10.3307 470.982 -10.5765 476.744 -4.75925C482.507 1.08533 482.373 9.93413 476.61 15.7787Z" fill="#4C2F92"/>
<path d="M390.704 181.002L376 166.231L441.009 100.924L455.712 115.695L390.704 181.002ZM476.61 100.545C470.847 106.334 462.391 106.686 456.386 100.653C450.407 94.6473 450.838 86.2607 456.601 80.4713C462.364 74.6819 470.982 74.4384 476.744 80.2008C482.507 85.9902 482.373 94.7555 476.61 100.545Z" fill="#4C2F92"/>
<path d="M501.841 70.002L487 54.9494L552.615 -11.6016L567.456 3.45096L501.841 70.002ZM588.549 -11.9875C582.732 -6.08783 574.197 -5.72943 568.136 -11.8773C562.101 -17.9975 562.536 -26.5439 568.353 -32.4436C574.17 -38.3433 582.868 -38.5914 588.684 -32.7193C594.528 -26.8195 594.392 -17.8873 588.549 -11.9875Z" fill="#4C2F92"/>
<path d="M473.844 180.002L459 165.368L524.628 100.666L539.471 115.3L473.844 180.002ZM560.568 100.318C554.75 106.053 546.214 106.402 540.151 100.425C534.116 94.4745 534.551 86.1657 540.369 80.4299C546.186 74.6941 554.886 74.4529 560.704 80.1618C566.522 85.8708 566.386 94.5549 560.568 100.318Z" fill="#4C2F92"/>
<path d="M586.565 69.002L572 54.0901L636.394 -11.8389L650.958 3.07293L586.565 69.002ZM671.631 -12.2213C665.923 -6.37671 657.547 -6.02166 651.598 -12.112C645.677 -18.1751 646.103 -26.6416 651.812 -32.4861C657.52 -38.3307 666.056 -38.5765 671.765 -32.7592C677.5 -26.9147 677.367 -18.0659 671.631 -12.2213Z" fill="#4C2F92"/>
<path d="M473.844 266.002L459 251.086L524.628 185.14L539.471 200.056L473.844 266.002ZM560.568 184.785C554.75 190.631 546.214 190.986 540.151 184.894C534.116 178.83 534.551 170.361 540.369 164.515C546.186 158.669 554.886 158.423 560.704 164.242C566.522 170.088 566.386 178.912 560.568 184.785Z" fill="#4C2F92"/>
<path d="M586.565 153.002L572 138.371L636.394 73.6864L650.958 88.3169L586.565 153.002ZM671.631 73.3112C665.923 79.0455 657.547 79.3939 651.598 73.4184C645.677 67.4697 646.103 59.163 651.812 53.4287C657.52 47.6944 666.056 47.4533 671.765 53.1608C677.5 58.8951 677.367 67.5769 671.631 73.3112Z" fill="#4C2F92"/>
<path d="M559.704 267.002L545 251.949L610.009 185.398L624.712 200.451L559.704 267.002ZM645.61 185.012C639.847 190.912 631.391 191.271 625.386 185.123C619.407 179.002 619.838 170.456 625.601 164.556C631.364 158.657 639.982 158.409 645.744 164.281C651.507 170.18 651.373 179.113 645.61 185.012Z" fill="#4C2F92"/>
<path d="M670.844 153.002L656 138.368L721.628 73.6659L736.471 88.3002L670.844 153.002ZM757.568 73.3175C751.75 79.0533 743.214 79.4017 737.151 73.4247C731.116 67.4745 731.551 59.1657 737.369 53.4299C743.186 47.6941 751.886 47.4529 757.704 53.1618C763.522 58.8976 763.386 67.5549 757.568 73.3175Z" fill="#4C2F92"/>
<path d="M670.844 239.002L656 224.227L721.628 158.903L736.471 173.678L670.844 239.002ZM757.568 158.551C751.75 164.342 743.214 164.694 737.151 158.66C731.116 152.652 731.551 144.263 737.369 138.472C743.186 132.682 751.886 132.438 757.704 138.202C763.522 143.993 763.386 152.733 757.568 158.551Z" fill="#4C2F92"/>
</g>
<defs>
<clipPath id="clip0_9785_53908">
<rect width="1069" height="174" fill="white" transform="translate(0 0.00195312)"/>
</clipPath>
</defs>
</svg>
