<svg width="333" height="497" viewBox="0 0 333 497" fill="none" xmlns="http://www.w3.org/2000/svg">
<g clip-path="url(#clip0_9758_42809)">
<path opacity="0.03" d="M-77.4343 37.2505L-111.973 2.68747L40.73 -150.124L75.2684 -115.561L-77.4343 37.2505ZM124.293 -151.01C110.756 -137.464 90.8929 -136.641 76.7866 -150.757C62.7435 -164.81 63.7556 -184.434 77.2926 -197.981C90.8296 -211.527 111.072 -212.097 124.609 -198.614C138.209 -185.067 137.893 -164.557 124.293 -151.01Z" fill="white"/>
<path opacity="0.03" d="M-139.679 299.827L-174.218 265.264L-21.5151 112.452L13.0233 147.015L-139.679 299.827ZM62.1108 111.566C48.5738 125.112 28.7111 125.935 14.6047 111.819C0.56163 97.7659 1.57378 78.1422 15.1108 64.5955C28.6478 51.0488 48.8901 50.4791 62.4271 63.9625C75.9641 77.5092 75.6478 98.0191 62.1108 111.566Z" fill="white"/>
<path opacity="0.03" d="M121.066 38.8318L86.5278 4.26875L239.231 -148.543L273.769 -113.98L121.066 38.8318ZM322.857 -149.366C309.32 -135.819 289.457 -134.996 275.35 -149.113C261.307 -163.166 262.319 -182.789 275.856 -196.336C289.394 -209.883 309.636 -210.453 323.173 -196.969C336.71 -183.422 336.394 -162.976 322.857 -149.366Z" fill="white"/>
<path opacity="0.03" d="M-139.679 496.887L-174.218 462.324L-21.5151 309.513L13.0233 344.076L-139.679 496.887ZM62.1108 308.626C48.5738 322.173 28.7111 322.996 14.6047 308.88C0.56163 294.826 1.57378 275.203 15.1108 261.656C28.6478 248.109 48.8901 247.54 62.4271 261.023C75.9641 274.57 75.6478 295.08 62.1108 308.626Z" fill="white"/>
<path opacity="0.03" d="M121.066 235.892L86.5278 201.329L239.231 48.5176L273.769 83.0806L121.066 235.892ZM322.857 47.6946C309.32 61.2413 289.457 62.0642 275.35 47.9478C261.307 33.8947 262.319 14.2711 275.856 0.724398C289.394 -12.8223 309.636 -13.392 323.173 0.0913744C336.71 13.6381 336.394 34.0846 322.857 47.6946Z" fill="white"/>
<path opacity="0.03" d="M53.1282 492.773L18.5898 458.21L171.293 305.398L205.831 339.961L53.1282 492.773ZM254.918 304.512C241.381 318.059 221.519 318.882 207.412 304.765C193.369 290.712 194.381 271.088 207.918 257.542C221.455 243.995 241.698 243.425 255.235 256.909C268.772 270.455 268.455 290.965 254.918 304.512Z" fill="white"/>
</g>
<defs>
<clipPath id="clip0_9758_42809">
<rect width="333" height="497" fill="white"/>
</clipPath>
</defs>
</svg>
