<svg width="460" height="630" viewBox="0 0 460 630" fill="none" xmlns="http://www.w3.org/2000/svg">
<g clip-path="url(#clip0_9758_42790)">
<path opacity="0.03" d="M52.5384 512.622L18 478.059L170.703 325.247L205.241 359.81L52.5384 512.622ZM254.329 324.424C240.792 337.971 220.929 338.794 206.822 324.677C192.779 310.624 193.791 291.001 207.329 277.454C220.866 263.907 241.108 263.337 254.645 276.821C268.245 290.368 267.929 310.814 254.329 324.424Z" fill="white"/>
<path opacity="0.03" d="M313.347 251.689L278.809 217.126L431.512 64.251L466.05 98.8141L313.347 251.689ZM515.138 63.4281C501.601 76.9748 481.738 77.7977 467.632 63.6813C453.588 49.6282 454.601 30.0045 468.138 16.4578C481.675 2.91112 501.917 2.3414 515.454 15.8248C528.991 29.3715 528.675 49.8814 515.138 63.4281Z" fill="white"/>
<path opacity="0.03" d="M52.5384 709.681L18 675.118L170.703 522.307L205.241 556.87L52.5384 709.681ZM254.329 521.484C240.792 535.03 220.929 535.853 206.822 521.737C192.779 507.684 193.791 488.06 207.329 474.513C220.866 460.967 241.108 460.397 254.645 473.88C268.245 487.427 267.929 507.874 254.329 521.484Z" fill="white"/>
<path opacity="0.03" d="M313.347 448.75L278.809 414.187L431.512 261.375L466.05 295.938L313.347 448.75ZM515.138 260.489C501.601 274.035 481.738 274.858 467.632 260.742C453.588 246.689 454.601 227.065 468.138 213.518C481.675 199.972 501.917 199.402 515.454 212.885C528.991 226.432 528.675 246.942 515.138 260.489Z" fill="white"/>
<path opacity="0.03" d="M251.103 711.328L216.564 676.765L369.267 523.953L403.806 558.516L251.103 711.328ZM452.893 523.067C439.356 536.613 419.493 537.436 405.387 523.32C391.344 509.267 392.356 489.643 405.893 476.096C419.43 462.55 439.672 461.98 453.209 475.463C466.746 489.01 466.43 509.52 452.893 523.067Z" fill="white"/>
</g>
<defs>
<clipPath id="clip0_9758_42790">
<rect width="460" height="630" fill="white"/>
</clipPath>
</defs>
</svg>
