<svg width="148" height="49" viewBox="0 0 148 49" fill="none" xmlns="http://www.w3.org/2000/svg">
<g clip-path="url(#clip0_9758_46869)" filter="url(#filter0_d_9758_46869)">
<path d="M9.11767 29.9136H4.71015V10.4584H9.11767V29.9136ZM40.4845 9.98714C45.9633 9.98714 48.6384 11.9516 48.6384 16.8231V29.9197H44.4758V28.2857C44.4758 28.2857 42.7128 30.3848 38.3542 30.3848C33.9957 30.3848 31.443 28.0164 31.443 24.6015C31.443 20.6113 34.2528 18.8121 39.4683 18.1695L44.3044 17.5575V16.6823C44.3044 14.4486 43.129 13.5367 40.3805 13.5367C37.9653 13.5547 35.601 14.2319 33.5427 15.4951L32.3184 12.1842C34.8103 10.7721 37.6203 10.0161 40.4845 9.98714ZM44.4023 20.7766L40.4356 21.2172C37.0197 21.5905 35.6669 22.5024 35.6669 24.4301C35.6669 26.0886 36.7504 27.0678 38.8807 27.0678C41.7639 27.0678 44.3901 25.5134 44.3901 22.741L44.4023 20.7766ZM51.2707 4.86478H55.666V10.4829H59.896V13.9345H55.6415V23.9222C55.6415 25.9479 56.1496 26.4314 58.0167 26.4314H59.8531V29.9136H56.6454C52.3603 29.9136 51.2646 27.9858 51.2646 24.1609L51.2707 4.86478ZM74.8203 18.6346C74.8203 15.2197 73.5042 13.7386 70.6944 13.7386C68.154 13.7386 66.4889 15.2931 66.4889 18.6346V29.9136H62.0446V3.56123H66.4399V11.5722C66.4399 11.5722 68.007 10.0545 71.429 10.0545C75.9589 10.0545 79.1789 12.8635 79.1789 17.8635V29.9136H74.7714L74.8203 18.6346ZM91.4342 30.4093C84.8413 30.4093 81.1868 26.0825 81.1868 20.2625C81.1868 14.2711 85.0127 10.0789 90.7303 10.0789C96.6131 10.0789 99.9677 14.2711 99.9677 20.2258V21.5844H85.5882C85.7963 24.6933 88.2021 26.5905 91.7097 26.5905C95.7744 26.5905 97.9353 24.7239 97.9353 24.7239L99.2576 28.0409C99.2576 28.0409 96.4111 30.4093 91.4342 30.4093ZM85.5882 18.3714H95.4439C95.3337 15.4645 93.3748 13.5734 90.6691 13.5734C87.7919 13.5734 85.931 15.4094 85.5882 18.3714ZM112.872 14.6995H111.127C108.422 14.6995 106.561 16.1866 106.561 20.2074V29.9136H102.159V10.4584H106.444V12.8268C106.444 12.8268 107.932 10.4584 111.825 10.4584H112.872V14.6995ZM9.98693 5.09121C10.0066 5.49409 9.94254 5.89668 9.79879 6.27357C9.65504 6.65047 9.43473 6.99349 9.15174 7.281C8.86876 7.56851 8.52924 7.79427 8.15461 7.94404C7.77999 8.09381 7.37838 8.16433 6.97512 8.15117C6.57367 8.1638 6.174 8.09261 5.80161 7.94216C5.42922 7.7917 5.0923 7.56528 4.81235 7.27734C4.5324 6.98941 4.31558 6.64628 4.17571 6.26987C4.03585 5.89346 3.97602 5.49203 4.00005 5.09121C3.98247 4.69194 4.04675 4.29329 4.18893 3.91977C4.3311 3.54624 4.54818 3.20572 4.82681 2.91914C5.10545 2.63255 5.43976 2.40595 5.8092 2.25327C6.17864 2.10058 6.57541 2.02503 6.97512 2.03125C7.37669 2.0244 7.77546 2.09923 8.1472 2.25121C8.51895 2.40319 8.8559 2.62915 9.1376 2.91534C9.41929 3.20154 9.63984 3.542 9.78585 3.91605C9.93185 4.2901 10.0003 4.68991 9.98693 5.09121ZM29.784 10.4706H25.0521C25.4606 12.1757 25.6519 13.9256 25.6214 15.6787C25.6214 21.5293 22.4749 25.7582 21.0547 25.7582C19.6345 25.7582 16.488 21.5171 16.488 15.6664C16.4576 13.913 16.6509 12.1629 17.0634 10.4584H12.3254C11.8832 12.0789 11.6771 13.7546 11.7132 15.4339C11.7132 24.7667 17.8348 30.3175 20.8527 30.3175C23.8706 30.3175 30.3962 24.7667 30.3962 15.4339C30.4323 13.7546 30.2262 12.0789 29.784 10.4584V10.4706ZM139.36 18.3408C139.36 15.1218 138.136 13.7386 135.46 13.7386C133.098 13.7386 131.506 15.2319 131.506 18.3714V29.9136H127.105V18.3408C127.105 15.1218 125.88 13.7386 123.217 13.7386C120.812 13.7386 119.257 15.2319 119.257 18.3714V29.9136H114.849V10.4584H119.257V12.0496C119.257 12.0496 120.579 10.0545 124.331 10.0545C127.392 10.0545 129.443 11.511 130.153 12.9981C130.153 12.9981 131.99 10.0545 136.379 10.0545C140.768 10.0545 143.725 12.6921 143.725 17.6309V29.9136H139.329L139.36 18.3408Z" fill="#BA82FF"/>
<path d="M29.3494 35.6846V42.643H33.0835V42.0677H29.9738V39.3933H32.6611L32.7836 38.8303H29.9738V36.266H33.0101V35.6846H29.3494Z" fill="#BA82FF"/>
<path d="M38.6297 40.1461C38.5838 39.7968 38.4385 39.4681 38.2109 39.1991C37.9833 38.9301 37.6832 38.7323 37.3463 38.6292C37.0093 38.5261 36.6498 38.5221 36.3107 38.6177C35.9715 38.7132 35.667 38.9043 35.4335 39.1681C35.2 39.4319 35.0473 39.7573 34.9937 40.1054C34.9401 40.4536 34.9878 40.8098 35.1311 41.1317C35.2745 41.4535 35.5074 41.7272 35.8021 41.9204C36.0968 42.1135 36.4408 42.2177 36.7932 42.2207C37.0529 42.2135 37.3083 42.153 37.5437 42.0431C37.779 41.9331 37.9893 41.7761 38.1615 41.5816C38.3336 41.3871 38.464 41.1593 38.5446 40.9124C38.6251 40.6655 38.6541 40.4046 38.6297 40.1461ZM38.6664 41.7678C38.4688 42.083 38.193 42.3416 37.8659 42.5185C37.5387 42.6955 37.1712 42.7847 36.7993 42.7776C36.1431 42.7226 35.5315 42.4232 35.0857 41.9386C34.64 41.454 34.3926 40.8197 34.3926 40.1614C34.3926 39.503 34.64 38.8687 35.0857 38.3841C35.5315 37.8996 36.1431 37.6001 36.7993 37.5451C37.158 37.5351 37.5136 37.6143 37.8341 37.7756C38.1547 37.9369 38.4301 38.1752 38.6358 38.4692V37.6736L39.2479 37.7715V42.6675H38.7705L38.6664 41.7678Z" fill="#BA82FF"/>
<path d="M40.9558 37.6736H41.568V40.7336C41.568 41.6455 41.9781 42.2085 42.7923 42.2085C43.7534 42.2085 44.4941 41.4435 44.4941 40.0176V37.6736H45.1062V42.6491H44.6104L44.5186 41.774C44.3473 42.0983 44.0854 42.3659 43.7648 42.5441C43.4442 42.7223 43.0786 42.8034 42.7127 42.7777C42.4711 42.7808 42.2315 42.7326 42.0099 42.6363C41.7882 42.5401 41.5896 42.3978 41.427 42.2191C41.2644 42.0404 41.1416 41.8292 41.0667 41.5995C40.9918 41.3698 40.9665 41.1268 40.9925 40.8866L40.9558 37.6736Z" fill="#BA82FF"/>
<path d="M49.2383 35.6846V36.266H51.338V42.6491H51.9501V36.266H54.0498V35.6846H49.2383Z" fill="#BA82FF"/>
<path d="M55.4211 35.4398L56.0333 35.2012V38.5365C56.2028 38.213 56.4624 37.9455 56.7807 37.7664C57.099 37.5872 57.4623 37.5039 57.8269 37.5267C58.0683 37.5227 58.3077 37.5701 58.5293 37.6657C58.751 37.7613 58.9498 37.9029 59.1124 38.0812C59.2751 38.2594 59.398 38.4703 59.473 38.6997C59.5479 38.9291 59.5732 39.1718 59.5471 39.4117V42.6246H58.9349V39.5647C58.9349 38.6528 58.5187 38.0836 57.7106 38.0836C56.7434 38.0836 56.0088 38.8486 56.0088 40.2746V42.6246H55.4211V35.4398Z" fill="#BA82FF"/>
<path d="M65.032 39.632C65.03 39.4211 64.9849 39.2129 64.8995 39.0201C64.8141 38.8273 64.6903 38.654 64.5355 38.5107C64.3808 38.3675 64.1984 38.2573 63.9995 38.1871C63.8007 38.1168 63.5896 38.0878 63.3792 38.102C62.9533 38.0993 62.5415 38.254 62.2229 38.5364C61.9042 38.8188 61.7012 39.209 61.6529 39.632H65.032ZM65.2095 42.4777C64.6919 42.6844 64.1385 42.7864 63.5812 42.7776C63.2381 42.7874 62.8967 42.726 62.5785 42.5973C62.2603 42.4686 61.9722 42.2755 61.7324 42.0299C61.4925 41.7844 61.3062 41.4919 61.185 41.1709C61.0639 40.8498 61.0106 40.5071 61.0285 40.1644C61.0027 39.8354 61.0437 39.5047 61.149 39.1919C61.2543 38.8792 61.4218 38.591 61.6414 38.3446C61.8609 38.0982 62.1281 37.8987 62.4267 37.7582C62.7253 37.6177 63.0493 37.5389 63.3792 37.5267C64.9769 37.5267 65.638 38.7507 65.638 40.1216H61.6284C61.604 40.3897 61.6368 40.66 61.7247 40.9145C61.8125 41.169 61.9534 41.402 62.1379 41.5981C62.3225 41.7942 62.5466 41.9489 62.7954 42.052C63.0441 42.1551 63.312 42.2043 63.5812 42.1962C64.0993 42.1896 64.6118 42.0879 65.0932 41.8964L65.2095 42.4777Z" fill="#BA82FF"/>
<path d="M67.1499 37.7776L67.6457 37.6736L67.7376 38.5855C67.9245 38.2572 68.1981 37.9865 68.5284 37.8031C68.8588 37.6196 69.2332 37.5304 69.6108 37.5451V38.1387C69.3523 38.1558 69.0996 38.2237 68.8674 38.3385C68.6352 38.4533 68.4278 38.6127 68.2573 38.8077C68.0867 39.0026 67.9562 39.2293 67.8734 39.4747C67.7905 39.7201 67.7568 39.9794 67.7743 40.2378V42.6858H67.1621L67.1499 37.7776Z" fill="#BA82FF"/>
<path d="M70.8046 37.7777L71.3004 37.6736L71.38 38.4754C71.53 38.1789 71.7621 37.9319 72.0487 37.7637C72.3352 37.5955 72.6641 37.5133 72.9961 37.5268C73.3305 37.5105 73.661 37.6048 73.9365 37.795C74.212 37.9853 74.4172 38.2609 74.5204 38.5794C74.6639 38.2496 74.9052 37.9718 75.2118 37.7836C75.5183 37.5953 75.8753 37.5057 76.2344 37.5268C77.2567 37.5268 77.8811 38.2244 77.8811 39.3627V42.6063H77.2689V39.5525C77.2689 38.6345 76.92 38.1082 76.1242 38.1082C75.3284 38.1082 74.6244 38.7201 74.6244 40.244V42.6491H74.0123V39.5525C74.0123 38.6345 73.6572 38.1082 72.8614 38.1082C72.0656 38.1082 71.3678 38.7691 71.3678 40.1828V42.6308H70.7556L70.8046 37.7777Z" fill="#BA82FF"/>
<path d="M83.6231 40.1461C83.5773 39.7968 83.4319 39.4681 83.2043 39.1991C82.9768 38.9301 82.6766 38.7323 82.3397 38.6292C82.0027 38.5261 81.6433 38.5221 81.3041 38.6176C80.9649 38.7132 80.6604 38.9043 80.4269 39.1681C80.1934 39.4319 80.0407 39.7573 79.9871 40.1054C79.9335 40.4536 79.9812 40.8098 80.1245 41.1316C80.2679 41.4535 80.5008 41.7272 80.7955 41.9203C81.0902 42.1135 81.4343 42.2177 81.7866 42.2207C82.0463 42.2135 82.3017 42.153 82.5371 42.0431C82.7725 41.9331 82.9827 41.7761 83.1549 41.5816C83.3271 41.3871 83.4574 41.1593 83.538 40.9124C83.6185 40.6655 83.6475 40.4046 83.6231 40.1461ZM83.6598 41.7678C83.4608 42.083 83.1839 42.3416 82.8557 42.5184C82.5276 42.6953 82.1593 42.7846 81.7866 42.7776C81.1304 42.7226 80.5188 42.4232 80.073 41.9386C79.6273 41.454 79.3799 40.8197 79.3799 40.1614C79.3799 39.503 79.6273 38.8687 80.073 38.3841C80.5188 37.8996 81.1304 37.6001 81.7866 37.5451C82.1451 37.5367 82.5001 37.6166 82.8203 37.7778C83.1406 37.9389 83.4163 38.1764 83.6231 38.4692V37.6736L84.2352 37.7715V42.6675H83.7945L83.6598 41.7678Z" fill="#BA82FF"/>
<path d="M86.0288 35.4398L86.641 35.2012V41.8107C86.641 42.135 86.7756 42.2758 87.0817 42.2758L86.9838 42.7899C86.4573 42.7899 86.0472 42.5451 86.0472 41.9637L86.0288 35.4398Z" fill="#BA82FF"/>
<path d="M92.2178 39.632C92.2147 39.423 92.1696 39.2169 92.0851 39.0258C92.0006 38.8346 91.8783 38.6625 91.7258 38.5197C91.5732 38.3769 91.3934 38.2663 91.1971 38.1945C91.0008 38.1228 90.792 38.0913 90.5833 38.102C90.1577 38.098 89.7459 38.2525 89.428 38.5353C89.1101 38.8181 88.9087 39.209 88.8631 39.632H92.2178ZM92.3953 42.4777C91.8752 42.6834 91.32 42.7852 90.7608 42.7776C90.4177 42.7874 90.0763 42.726 89.7581 42.5973C89.4399 42.4686 89.1518 42.2755 88.912 42.0299C88.6722 41.7844 88.4858 41.4919 88.3647 41.1709C88.2435 40.8498 88.1902 40.5071 88.2081 40.1644C88.1823 39.8335 88.224 39.5007 88.3308 39.1864C88.4376 38.872 88.6073 38.5827 88.8295 38.336C89.0516 38.0892 89.3217 37.8903 89.6232 37.7512C89.9247 37.612 90.2513 37.5357 90.5833 37.5267C92.1871 37.5267 92.8422 38.7507 92.8422 40.1216H88.808C88.7837 40.3897 88.8165 40.66 88.9043 40.9145C88.9921 41.169 89.133 41.402 89.3176 41.5981C89.5021 41.7942 89.7262 41.9489 89.975 42.052C90.2238 42.1551 90.4916 42.2043 90.7608 42.1962C91.2809 42.1892 91.7953 42.0876 92.279 41.8964L92.3953 42.4777Z" fill="#BA82FF"/>
<path d="M101.529 35.6846V38.8303H97.8373V35.6846H97.2251V42.643H97.8373V39.4117H101.529V42.643H102.147V35.6846H101.529Z" fill="#BA82FF"/>
<path d="M107.791 39.632C107.789 39.4233 107.744 39.2173 107.661 39.0262C107.577 38.8351 107.455 38.663 107.303 38.52C107.151 38.3771 106.971 38.2664 106.775 38.1946C106.58 38.1228 106.371 38.0913 106.163 38.102C105.737 38.098 105.325 38.2525 105.007 38.5353C104.689 38.8181 104.488 39.209 104.442 39.632H107.791ZM107.968 42.4777C107.451 42.6844 106.897 42.7864 106.34 42.7776C105.995 42.794 105.65 42.7371 105.329 42.6108C105.007 42.4845 104.716 42.2917 104.474 42.0448C104.233 41.798 104.046 41.5029 103.927 41.1788C103.807 40.8547 103.758 40.509 103.781 40.1644C103.755 39.8329 103.797 39.4997 103.905 39.185C104.012 38.8702 104.182 38.5806 104.405 38.3338C104.628 38.087 104.898 37.8881 105.201 37.7494C105.503 37.6106 105.83 37.5349 106.163 37.5267C107.766 37.5267 108.421 38.7507 108.421 40.1216H104.394C104.369 40.3897 104.402 40.66 104.49 40.9145C104.578 41.169 104.718 41.402 104.903 41.5981C105.088 41.7942 105.312 41.9489 105.56 42.052C105.809 42.1551 106.077 42.2043 106.346 42.1962C106.864 42.1896 107.377 42.0879 107.858 41.8963L107.968 42.4777Z" fill="#BA82FF"/>
<path d="M109.903 37.7777L110.399 37.6736L110.485 38.5855C110.67 38.2561 110.942 37.9835 111.271 37.7969C111.6 37.6104 111.974 37.517 112.352 37.5268V38.1387C111.831 38.1764 111.346 38.418 111.002 38.811C110.658 39.204 110.483 39.7167 110.515 40.2379V42.6858H109.903V37.7777Z" fill="#BA82FF"/>
<path d="M117.634 42.4227C117.098 42.6651 116.515 42.7843 115.927 42.7715C115.572 42.7887 115.218 42.7337 114.886 42.61C114.553 42.4862 114.249 42.2963 113.993 42.0516C113.736 41.807 113.531 41.5128 113.392 41.1868C113.252 40.8609 113.18 40.5099 113.18 40.1553C113.18 39.8006 113.252 39.4497 113.392 39.1237C113.531 38.7978 113.736 38.5035 113.993 38.2589C114.249 38.0143 114.553 37.8243 114.886 37.7006C115.218 37.5768 115.572 37.5219 115.927 37.539C116.515 37.5392 117.097 37.6556 117.641 37.8817L117.451 38.4019C116.967 38.2048 116.449 38.101 115.927 38.0959C115.381 38.0959 114.858 38.3126 114.472 38.6982C114.086 39.0838 113.87 39.6069 113.87 40.1522C113.87 40.6976 114.086 41.2206 114.472 41.6062C114.858 41.9919 115.381 42.2085 115.927 42.2085C116.45 42.1898 116.966 42.0779 117.451 41.878L117.634 42.4227Z" fill="#BA82FF"/>
<path d="M119.024 37.6736H119.636V40.7336C119.636 41.6455 120.052 42.2085 120.86 42.2085C121.821 42.2085 122.562 41.4435 122.562 40.0176V37.6736H123.174V42.6491H122.678L122.581 41.774C122.411 42.0999 122.15 42.3688 121.829 42.5472C121.507 42.7257 121.141 42.8058 120.775 42.7777C120.534 42.78 120.295 42.7312 120.074 42.6345C119.854 42.5378 119.656 42.3953 119.495 42.2166C119.333 42.0378 119.212 41.8268 119.138 41.5975C119.064 41.3683 119.04 41.1259 119.067 40.8866L119.024 37.6736Z" fill="#BA82FF"/>
<path d="M124.925 35.4398L125.537 35.2012V41.8107C125.537 42.135 125.672 42.2758 125.984 42.2758L125.874 42.7899C125.354 42.7899 124.938 42.5451 124.938 41.9637L124.925 35.4398Z" fill="#BA82FF"/>
<path d="M131.39 40.146C131.344 39.7968 131.199 39.468 130.971 39.1991C130.743 38.9301 130.443 38.7323 130.106 38.6292C129.769 38.5261 129.41 38.5221 129.071 38.6176C128.732 38.7132 128.427 38.9043 128.194 39.1681C127.96 39.4319 127.807 39.7573 127.754 40.1054C127.7 40.4536 127.748 40.8098 127.891 41.1316C128.034 41.4534 128.267 41.7272 128.562 41.9203C128.857 42.1134 129.201 42.2177 129.553 42.2207C129.813 42.2126 130.068 42.1515 130.303 42.0413C130.538 41.9311 130.747 41.774 130.919 41.5797C131.091 41.3854 131.222 41.158 131.303 40.9114C131.384 40.6649 131.413 40.4044 131.39 40.146ZM131.42 41.7678C131.222 42.0825 130.946 42.3408 130.619 42.5177C130.292 42.6946 129.925 42.7841 129.553 42.7776C128.897 42.7226 128.285 42.4231 127.84 41.9386C127.394 41.454 127.146 40.8197 127.146 40.1613C127.146 39.503 127.394 38.8687 127.84 38.3841C128.285 37.8996 128.897 37.6001 129.553 37.5451C129.912 37.5334 130.268 37.6119 130.589 37.7733C130.91 37.9347 131.185 38.174 131.39 38.4692V37.6736L132.002 37.7715V42.6675H131.561L131.42 41.7678Z" fill="#BA82FF"/>
<path d="M133.777 37.7777L134.273 37.6736L134.365 38.5549C134.539 38.2259 134.806 37.9551 135.132 37.7757C135.458 37.5963 135.83 37.5161 136.201 37.5451C136.442 37.5427 136.681 37.5915 136.901 37.6883C137.122 37.785 137.32 37.9274 137.481 38.1062C137.643 38.285 137.764 38.496 137.838 38.7252C137.912 38.9545 137.936 39.1968 137.909 39.4362V42.6491H137.297V39.5892C137.297 38.6712 136.887 38.1143 136.073 38.1143C135.106 38.1143 134.371 38.8731 134.371 40.3052V42.6552H133.759L133.777 37.7777Z" fill="#BA82FF"/>
<path d="M143.37 39.632C143.367 39.423 143.321 39.2169 143.237 39.0258C143.152 38.8346 143.03 38.6625 142.878 38.5197C142.725 38.3769 142.545 38.2663 142.349 38.1945C142.153 38.1228 141.944 38.0913 141.735 38.102C141.309 38.0979 140.896 38.2521 140.577 38.5348C140.258 38.8175 140.056 39.2085 140.009 39.632H143.37ZM143.541 42.4777C143.024 42.6849 142.47 42.7869 141.913 42.7776C141.57 42.7874 141.228 42.726 140.91 42.5973C140.592 42.4686 140.304 42.2755 140.064 42.0299C139.824 41.7844 139.638 41.4919 139.517 41.1709C139.395 40.8498 139.342 40.5071 139.36 40.1644C139.334 39.8335 139.376 39.5007 139.483 39.1864C139.59 38.872 139.759 38.5827 139.981 38.336C140.204 38.0892 140.474 37.8903 140.775 37.7512C141.077 37.612 141.403 37.5357 141.735 37.5267C143.339 37.5267 144 38.7507 144 40.1216H139.96C139.936 40.3897 139.968 40.66 140.056 40.9145C140.144 41.169 140.285 41.402 140.469 41.5981C140.654 41.7942 140.878 41.9489 141.127 42.052C141.376 42.1551 141.643 42.2043 141.913 42.1962C142.433 42.1892 142.947 42.0876 143.431 41.8964L143.541 42.4777Z" fill="#BA82FF"/>
</g>
<defs>
<filter id="filter0_d_9758_46869" x="0" y="0.03125" width="148" height="48.7464" filterUnits="userSpaceOnUse" color-interpolation-filters="sRGB">
<feFlood flood-opacity="0" result="BackgroundImageFix"/>
<feColorMatrix in="SourceAlpha" type="matrix" values="0 0 0 0 0 0 0 0 0 0 0 0 0 0 0 0 0 0 127 0" result="hardAlpha"/>
<feOffset dy="2"/>
<feGaussianBlur stdDeviation="2"/>
<feColorMatrix type="matrix" values="0 0 0 0 0.152941 0 0 0 0 0.156863 0 0 0 0 0.2 0 0 0 0.2 0"/>
<feBlend mode="normal" in2="BackgroundImageFix" result="effect1_dropShadow_9758_46869"/>
<feBlend mode="normal" in="SourceGraphic" in2="effect1_dropShadow_9758_46869" result="shape"/>
</filter>
<clipPath id="clip0_9758_46869">
<rect width="140" height="40.7464" fill="white" transform="translate(4 2.03125)"/>
</clipPath>
</defs>
</svg>
