<svg width="751" height="180" viewBox="0 0 751 180" fill="none" xmlns="http://www.w3.org/2000/svg">
<g clip-path="url(#clip0_9804_22336)">
<path d="M-116.897 94.3458L-151.436 59.7827L1.26712 -93.029L35.8055 -58.4659L-116.897 94.3458ZM84.893 -93.9152C71.356 -80.3685 51.4933 -79.5456 37.3869 -93.662C23.3439 -107.715 24.356 -127.339 37.893 -140.885C51.43 -154.432 71.6723 -155.002 85.2093 -141.518C98.7463 -127.972 98.43 -107.462 84.893 -93.9152Z" fill="#4C2F92"/>
<path d="M-116.897 291.406L-151.436 256.843L1.26712 104.032L35.8055 138.595L-116.897 291.406ZM84.893 103.145C71.356 116.692 51.4933 117.515 37.3869 103.399C23.3439 89.3455 24.356 69.7218 37.893 56.1751C51.43 42.6284 71.6723 42.0587 85.2093 55.5421C98.7463 69.0888 98.43 89.5987 84.893 103.145Z" fill="#4C2F92"/>
<path d="M143.848 30.4748L109.31 -4.08827L262.013 -156.9L296.551 -122.337L143.848 30.4748ZM345.639 -157.786C332.102 -144.24 312.239 -143.417 298.132 -157.533C284.089 -171.586 285.102 -191.21 298.639 -204.757C312.176 -218.303 332.418 -218.873 345.955 -205.39C359.555 -191.843 359.239 -171.333 345.639 -157.786Z" fill="#4C2F92"/>
<path d="M78.7571 290.14L44.2188 255.577L196.921 102.765L231.46 137.328L78.7571 290.14ZM280.547 101.942C267.01 115.489 247.147 116.312 233.041 102.195C218.998 88.1424 220.01 68.5187 233.547 54.972C247.084 41.4253 267.326 40.8556 280.863 54.3389C294.401 67.8223 294.084 88.3323 280.547 101.942Z" fill="#4C2F92"/>
<path d="M339.566 29.2081L305.027 -5.35493L457.73 -158.167L492.268 -123.604L339.566 29.2081ZM541.293 -159.053C527.756 -145.506 507.893 -144.683 493.787 -158.8C479.744 -172.853 480.756 -192.476 494.293 -206.023C507.83 -219.57 528.072 -220.14 541.609 -206.656C555.209 -193.109 554.893 -172.6 541.293 -159.053Z" fill="#4C2F92"/>
<path d="M339.566 226.269L305.027 191.706L457.73 38.8939L492.268 73.457L339.566 226.269ZM541.293 38.0077C527.756 51.5544 507.893 52.3773 493.787 38.2609C479.744 24.2078 480.756 4.58407 494.293 -8.96261C507.83 -22.5093 528.072 -23.079 541.609 -9.59563C555.209 3.95105 554.893 24.461 541.293 38.0077Z" fill="#4C2F92"/>
<path d="M538.066 227.85L503.528 193.287L656.231 40.4751L690.769 75.0382L538.066 227.85ZM739.857 39.6522C726.32 53.1989 706.457 54.0219 692.35 39.9054C678.307 25.8523 679.319 6.22861 692.856 -7.31807C706.394 -20.8648 726.636 -21.4345 740.173 -7.9511C753.71 5.59559 753.394 26.0422 739.857 39.6522Z" fill="#4C2F92"/>
<path d="M538.066 424.91L503.528 390.347L656.231 237.536L690.769 272.099L538.066 424.91ZM739.857 236.713C726.32 250.259 706.457 251.082 692.35 236.966C678.307 222.913 679.319 203.289 692.856 189.742C706.394 176.196 726.636 175.626 740.173 189.109C753.71 202.656 753.394 223.103 739.857 236.713Z" fill="#4C2F92"/>
</g>
<defs>
<clipPath id="clip0_9804_22336">
<rect width="751" height="179" fill="white" transform="translate(0 0.0180664)"/>
</clipPath>
</defs>
</svg>
